<?xml version="1.0" standalone="no"?>
<!DOCTYPE svg PUBLIC "-//W3C//DTD SVG 20010904//EN"
 "http://www.w3.org/TR/2001/REC-SVG-20010904/DTD/svg10.dtd">
<svg version="1.0" xmlns="http://www.w3.org/2000/svg"
 width="495.000000pt" height="495.000000pt" viewBox="0 0 495.000000 495.000000"
 preserveAspectRatio="xMidYMid meet">
<metadata>
Created by potrace 1.11, written by Peter Selinger 2001-2013
</metadata>
<g transform="translate(0.000000,495.000000) scale(0.100000,-0.100000)"
fill="#000000" stroke="none">
<path d="M2231 4940 c-19 -4 -61 -11 -93 -14 -320 -35 -720 -185 -1022 -384
-596 -393 -980 -1000 -1092 -1727 -19 -120 -25 -478 -11 -595 5 -36 10 -82 13
-103 2 -20 15 -90 29 -155 89 -413 274 -788 545 -1101 94 -108 233 -243 312
-303 20 -15 42 -34 50 -41 7 -7 36 -28 63 -47 28 -18 52 -36 55 -40 9 -10 222
-136 288 -169 162 -82 416 -171 587 -205 122 -25 127 -26 175 -31 25 -3 74
-10 110 -16 96 -16 453 -6 580 15 58 10 114 19 125 21 161 24 469 130 642 219
130 68 283 160 326 197 7 5 39 30 72 55 323 246 602 604 760 973 88 206 161
466 181 642 3 30 8 65 11 79 9 44 11 422 3 490 -5 36 -11 88 -14 115 -3 28 -8
62 -11 78 -3 15 -7 37 -9 50 -47 267 -192 626 -351 872 -322 497 -802 858
-1368 1029 -118 36 -284 72 -377 82 -30 3 -71 10 -90 15 -42 11 -441 10 -489
-1z"/>
</g>
</svg>
